<svg viewBox="0 0 468.5 71.40027618408203" xmlns="http://www.w3.org/2000/svg"><g id="svgGroup"><path d="M 426.1 70 L 426.1 67.1 L 465.5 67.1 L 465.5 7.2 L 443 55.4 L 420.5 7.1 L 420.5 70.1 L 417.5 70 L 417.5 0 L 420.5 0 L 443 48.3 L 465.5 0.1 L 468.5 0 L 468.5 70.1 L 426.1 70 Z M 315.7 70.1 L 315.7 67.1 L 343.3 67.1 L 331.2 33.9 L 336.8 30.7 A 13.374 13.374 0 0 0 341.331 26.782 Q 343.7 23.463 343.7 18.6 Q 343.7 3.567 321.499 3.114 A 68.677 68.677 0 0 0 320.1 3.1 L 310.9 3.1 L 310.9 70.1 L 307.9 70.1 L 307.9 0.1 L 320.1 0.1 Q 328.224 0.1 333.886 1.937 A 21.846 21.846 0 0 1 340 4.95 A 15.496 15.496 0 0 1 346.568 16.203 A 21.105 21.105 0 0 1 346.7 18.6 A 18.604 18.604 0 0 1 345.673 24.944 Q 343.913 29.829 339.132 32.809 A 20.464 20.464 0 0 1 338.3 33.3 L 334.9 35.2 L 347.6 70.1 L 315.7 70.1 Z M 364.7 70.1 L 364.7 67.1 L 401.5 67.1 L 380.3 8.8 L 358 70.1 L 354.8 70.1 L 380.3 0 L 405.8 70.1 L 364.7 70.1 Z M 117.2 70.1 L 117.2 67.1 L 149.8 67.1 L 129.3 18.8 L 107.5 70.1 L 104.3 70.1 L 129.3 11.1 L 154.3 70.1 L 117.2 70.1 Z M 92.9 12.1 L 92.9 70.1 L 89.9 70.1 L 89.9 41.1 L 59.9 41.1 L 59.9 70.1 L 56.9 70.1 L 56.9 12.1 L 59.9 12.1 L 59.9 38.1 L 89.9 38.1 L 89.9 12.1 L 92.9 12.1 Z M 259.2 16.4 L 257.2 18.6 A 14.46 14.46 0 0 0 252.041 15.429 Q 249.794 14.593 247.001 14.214 A 37.287 37.287 0 0 0 242 13.9 A 28.804 28.804 0 0 0 236.306 14.412 Q 227.476 16.201 226.517 24.246 A 17.354 17.354 0 0 0 226.4 26.3 A 9.736 9.736 0 0 0 227.154 30.188 Q 228.056 32.284 230.037 33.826 A 11.603 11.603 0 0 0 230.2 33.95 A 24.593 24.593 0 0 0 235.294 36.858 A 32.299 32.299 0 0 0 239.45 38.3 Q 244.9 39.8 250.35 41.45 A 23.488 23.488 0 0 1 256.929 44.57 A 21.329 21.329 0 0 1 259.6 46.75 A 12.201 12.201 0 0 1 263.307 54.511 A 16.808 16.808 0 0 1 263.4 56.3 Q 263.4 62.856 258.254 66.885 A 17.06 17.06 0 0 1 257.7 67.3 A 19.036 19.036 0 0 1 252.242 69.95 Q 249.68 70.754 246.563 71.112 A 47.07 47.07 0 0 1 241.2 71.4 Q 235.9 71.4 230.75 70 Q 227.168 69.026 224.868 67.424 A 10.848 10.848 0 0 1 223.1 65.9 L 225.1 63.7 A 15.694 15.694 0 0 0 230.557 66.892 Q 232.941 67.74 235.884 68.111 A 39.371 39.371 0 0 0 240.8 68.4 A 41.887 41.887 0 0 0 246.141 68.083 Q 248.827 67.736 251.015 67.012 A 16.075 16.075 0 0 0 255.45 64.8 A 15.203 15.203 0 0 0 258.007 62.495 Q 260.4 59.738 260.4 56.4 A 10.639 10.639 0 0 0 259.579 52.162 A 10.105 10.105 0 0 0 256.6 48.3 A 23.597 23.597 0 0 0 250.902 44.899 A 29.871 29.871 0 0 0 247.35 43.65 Q 241.9 42.1 236.45 40.45 Q 231 38.8 227.2 35.3 Q 223.4 31.8 223.4 26.1 A 18.215 18.215 0 0 1 223.928 21.572 A 11.95 11.95 0 0 1 228.55 14.65 A 18.967 18.967 0 0 1 235.741 11.495 Q 238.431 10.905 241.551 10.9 A 33.172 33.172 0 0 1 241.6 10.9 A 44.201 44.201 0 0 1 247.679 11.288 Q 254.808 12.281 258.61 15.815 A 12.871 12.871 0 0 1 259.2 16.4 Z M 39.8 0.1 L 44.1 0.1 L 10.5 33.5 L 47.3 70.1 L 43 70.1 L 6.2 33.5 L 39.8 0.1 Z M 204.4 64 Q 199 71.1 186.5 71.1 A 34.698 34.698 0 0 1 180.03 70.538 Q 176.374 69.843 173.578 68.287 A 15.862 15.862 0 0 1 168.6 64 A 21.406 21.406 0 0 1 165.526 58.091 Q 163.518 52.374 163.243 43.865 A 85.799 85.799 0 0 1 163.2 41.1 A 73.332 73.332 0 0 1 163.604 33.11 Q 164.677 23.359 168.6 18.2 Q 174 11.1 186.5 11.1 A 34.698 34.698 0 0 1 192.97 11.662 Q 196.626 12.357 199.422 13.913 A 15.862 15.862 0 0 1 204.4 18.2 A 21.406 21.406 0 0 1 207.474 24.109 Q 209.482 29.826 209.757 38.335 A 85.799 85.799 0 0 1 209.8 41.1 A 73.332 73.332 0 0 1 209.396 49.09 Q 208.323 58.841 204.4 64 Z M 194.9 15.15 Q 191.5 14.1 186.5 14.1 A 39.637 39.637 0 0 0 182.975 14.248 Q 181.256 14.401 179.782 14.715 A 19.381 19.381 0 0 0 178.1 15.15 A 14.367 14.367 0 0 0 173.403 17.663 A 17.99 17.99 0 0 0 171.85 19.05 A 13.398 13.398 0 0 0 169.634 22.041 Q 168.816 23.513 168.196 25.34 A 27.619 27.619 0 0 0 167.6 27.35 Q 166.583 31.31 166.305 36.774 A 85.233 85.233 0 0 0 166.2 41.1 Q 166.2 49.4 167.6 54.85 A 25.336 25.336 0 0 0 168.734 58.29 Q 169.474 60.065 170.433 61.446 A 12.463 12.463 0 0 0 171.85 63.15 Q 174.7 66 178.1 67.05 Q 181.5 68.1 186.5 68.1 A 39.637 39.637 0 0 0 190.025 67.952 Q 191.744 67.799 193.218 67.485 A 19.381 19.381 0 0 0 194.9 67.05 A 14.367 14.367 0 0 0 199.597 64.537 A 17.99 17.99 0 0 0 201.15 63.15 A 13.398 13.398 0 0 0 203.366 60.159 Q 204.184 58.687 204.804 56.86 A 27.619 27.619 0 0 0 205.4 54.85 Q 206.417 50.89 206.695 45.426 A 85.233 85.233 0 0 0 206.8 41.1 Q 206.8 32.8 205.4 27.35 A 25.336 25.336 0 0 0 204.266 23.91 Q 203.526 22.135 202.567 20.754 A 12.463 12.463 0 0 0 201.15 19.05 Q 198.3 16.2 194.9 15.15 Z M 0 0.1 L 3 0.1 L 3 70.1 L 0 70.1 L 0 0.1 Z" vector-effect="non-scaling-stroke"/></g></svg>