<svg viewBox="0 0 475.8999938964844 72.30135345458984" xmlns="http://www.w3.org/2000/svg"><g id="svgGroup"><path d="M 433.5 70.901 L 433.5 68.001 L 472.9 68.001 L 472.9 8.101 L 450.4 56.301 L 427.9 8.001 L 427.9 71.001 L 424.9 70.901 L 424.9 0.901 L 427.9 0.901 L 450.4 49.201 L 472.9 1.001 L 475.9 0.901 L 475.9 71.001 L 433.5 70.901 Z M 315.7 71.001 L 315.7 68.001 L 343.3 68.001 L 331.2 34.801 L 336.8 31.601 A 13.374 13.374 0 0 0 341.331 27.683 Q 343.7 24.364 343.7 19.501 Q 343.7 4.468 321.499 4.015 A 68.677 68.677 0 0 0 320.1 4.001 L 310.9 4.001 L 310.9 71.001 L 307.9 71.001 L 307.9 1.001 L 320.1 1.001 Q 328.224 1.001 333.886 2.838 A 21.846 21.846 0 0 1 340 5.851 A 15.496 15.496 0 0 1 346.568 17.104 A 21.105 21.105 0 0 1 346.7 19.501 A 18.604 18.604 0 0 1 345.673 25.845 Q 343.913 30.73 339.132 33.71 A 20.464 20.464 0 0 1 338.3 34.201 L 334.9 36.101 L 347.6 71.001 L 315.7 71.001 Z M 117.2 71.001 L 117.2 68.001 L 149.8 68.001 L 129.3 19.701 L 107.5 71.001 L 104.3 71.001 L 129.3 12.001 L 154.3 71.001 L 117.2 71.001 Z M 92.9 13.001 L 92.9 71.001 L 89.9 71.001 L 89.9 42.001 L 59.9 42.001 L 59.9 71.001 L 56.9 71.001 L 56.9 13.001 L 59.9 13.001 L 59.9 39.001 L 89.9 39.001 L 89.9 13.001 L 92.9 13.001 Z M 259.2 17.301 L 257.2 19.501 A 14.46 14.46 0 0 0 252.041 16.33 Q 249.794 15.494 247.001 15.115 A 37.287 37.287 0 0 0 242 14.801 A 28.804 28.804 0 0 0 236.306 15.313 Q 227.476 17.102 226.517 25.147 A 17.354 17.354 0 0 0 226.4 27.201 A 9.736 9.736 0 0 0 227.154 31.089 Q 228.056 33.185 230.037 34.727 A 11.603 11.603 0 0 0 230.2 34.851 A 24.593 24.593 0 0 0 235.294 37.76 A 32.299 32.299 0 0 0 239.45 39.201 Q 244.9 40.701 250.35 42.351 A 23.488 23.488 0 0 1 256.929 45.471 A 21.329 21.329 0 0 1 259.6 47.651 A 12.201 12.201 0 0 1 263.307 55.412 A 16.808 16.808 0 0 1 263.4 57.201 Q 263.4 63.757 258.254 67.786 A 17.06 17.06 0 0 1 257.7 68.201 A 19.036 19.036 0 0 1 252.242 70.851 Q 249.68 71.655 246.563 72.013 A 47.07 47.07 0 0 1 241.2 72.301 Q 235.9 72.301 230.75 70.901 Q 227.168 69.927 224.868 68.325 A 10.848 10.848 0 0 1 223.1 66.801 L 225.1 64.601 A 15.694 15.694 0 0 0 230.557 67.793 Q 232.941 68.641 235.884 69.012 A 39.371 39.371 0 0 0 240.8 69.301 A 41.887 41.887 0 0 0 246.141 68.984 Q 248.827 68.637 251.015 67.913 A 16.075 16.075 0 0 0 255.45 65.701 A 15.203 15.203 0 0 0 258.007 63.396 Q 260.4 60.639 260.4 57.301 A 10.639 10.639 0 0 0 259.579 53.063 A 10.105 10.105 0 0 0 256.6 49.201 A 23.597 23.597 0 0 0 250.902 45.8 A 29.871 29.871 0 0 0 247.35 44.551 Q 241.9 43.001 236.45 41.351 Q 231 39.701 227.2 36.201 Q 223.4 32.701 223.4 27.001 A 18.215 18.215 0 0 1 223.928 22.474 A 11.95 11.95 0 0 1 228.55 15.551 A 18.967 18.967 0 0 1 235.741 12.396 Q 238.431 11.806 241.551 11.801 A 33.172 33.172 0 0 1 241.6 11.801 A 44.201 44.201 0 0 1 247.679 12.189 Q 254.808 13.182 258.61 16.716 A 12.871 12.871 0 0 1 259.2 17.301 Z M 39.8 1.001 L 44.1 1.001 L 10.5 34.401 L 47.3 71.001 L 43 71.001 L 6.2 34.401 L 39.8 1.001 Z M 360.7 40.901 L 360.7 31.101 Q 360.7 16.488 365.288 8.924 A 19.526 19.526 0 0 1 366.2 7.551 A 17.385 17.385 0 0 1 375.731 1.063 Q 378.702 0.2 382.304 0.038 A 37.814 37.814 0 0 1 384 0.001 A 31.499 31.499 0 0 1 390.704 0.666 Q 394.77 1.553 397.773 3.62 A 16.601 16.601 0 0 1 401.8 7.551 A 23.673 23.673 0 0 1 405.029 14.028 Q 407.3 20.82 407.3 31.101 L 407.3 40.901 Q 407.3 55.514 402.712 63.079 A 19.526 19.526 0 0 1 401.8 64.451 Q 396.687 71.47 385.696 71.964 A 37.814 37.814 0 0 1 384 72.001 A 31.499 31.499 0 0 1 377.296 71.336 Q 373.23 70.449 370.227 68.382 A 16.601 16.601 0 0 1 366.2 64.451 A 23.673 23.673 0 0 1 362.971 57.974 Q 360.7 51.182 360.7 40.901 Z M 363.7 31.101 L 363.7 40.901 Q 363.7 47.246 364.518 52.042 A 38.845 38.845 0 0 0 365.1 54.851 Q 366.123 58.98 367.894 61.694 A 13.26 13.26 0 0 0 369.3 63.501 A 17.002 17.002 0 0 0 372.872 66.447 A 14.769 14.769 0 0 0 375.6 67.751 A 20.022 20.022 0 0 0 379.124 68.638 Q 381.359 69.001 384 69.001 A 32.254 32.254 0 0 0 387.75 68.795 Q 390.322 68.493 392.4 67.751 A 15.405 15.405 0 0 0 397.602 64.585 A 18.71 18.71 0 0 0 398.7 63.501 Q 401.5 60.501 402.9 54.851 Q 403.958 50.58 404.217 44.796 A 87.386 87.386 0 0 0 404.3 40.901 L 404.3 31.101 Q 404.3 24.757 403.482 19.96 A 38.845 38.845 0 0 0 402.9 17.151 Q 401.877 13.022 400.106 10.308 A 13.26 13.26 0 0 0 398.7 8.501 A 17.002 17.002 0 0 0 395.128 5.556 A 14.769 14.769 0 0 0 392.4 4.251 A 20.022 20.022 0 0 0 388.876 3.364 Q 386.641 3.001 384 3.001 A 32.254 32.254 0 0 0 380.25 3.207 Q 377.678 3.509 375.6 4.251 A 15.405 15.405 0 0 0 370.398 7.417 A 18.71 18.71 0 0 0 369.3 8.501 Q 366.5 11.501 365.1 17.151 Q 364.042 21.422 363.783 27.206 A 87.386 87.386 0 0 0 363.7 31.101 Z M 204.4 64.901 Q 199 72.001 186.5 72.001 A 34.698 34.698 0 0 1 180.03 71.439 Q 176.374 70.744 173.578 69.188 A 15.862 15.862 0 0 1 168.6 64.901 A 21.406 21.406 0 0 1 165.526 58.992 Q 163.518 53.275 163.243 44.766 A 85.799 85.799 0 0 1 163.2 42.001 A 73.332 73.332 0 0 1 163.604 34.011 Q 164.677 24.26 168.6 19.101 Q 174 12.001 186.5 12.001 A 34.698 34.698 0 0 1 192.97 12.563 Q 196.626 13.258 199.422 14.814 A 15.862 15.862 0 0 1 204.4 19.101 A 21.406 21.406 0 0 1 207.474 25.01 Q 209.482 30.727 209.757 39.236 A 85.799 85.799 0 0 1 209.8 42.001 A 73.332 73.332 0 0 1 209.396 49.991 Q 208.323 59.742 204.4 64.901 Z M 194.9 16.051 Q 191.5 15.001 186.5 15.001 A 39.637 39.637 0 0 0 182.975 15.149 Q 181.256 15.303 179.782 15.617 A 19.381 19.381 0 0 0 178.1 16.051 A 14.367 14.367 0 0 0 173.403 18.564 A 17.99 17.99 0 0 0 171.85 19.951 A 13.398 13.398 0 0 0 169.634 22.942 Q 168.816 24.414 168.196 26.241 A 27.619 27.619 0 0 0 167.6 28.251 Q 166.583 32.211 166.305 37.675 A 85.233 85.233 0 0 0 166.2 42.001 Q 166.2 50.301 167.6 55.751 A 25.336 25.336 0 0 0 168.734 59.191 Q 169.474 60.966 170.433 62.347 A 12.463 12.463 0 0 0 171.85 64.051 Q 174.7 66.901 178.1 67.951 Q 181.5 69.001 186.5 69.001 A 39.637 39.637 0 0 0 190.025 68.853 Q 191.744 68.7 193.218 68.386 A 19.381 19.381 0 0 0 194.9 67.951 A 14.367 14.367 0 0 0 199.597 65.438 A 17.99 17.99 0 0 0 201.15 64.051 A 13.398 13.398 0 0 0 203.366 61.06 Q 204.184 59.588 204.804 57.761 A 27.619 27.619 0 0 0 205.4 55.751 Q 206.417 51.791 206.695 46.327 A 85.233 85.233 0 0 0 206.8 42.001 Q 206.8 33.701 205.4 28.251 A 25.336 25.336 0 0 0 204.266 24.811 Q 203.526 23.036 202.567 21.655 A 12.463 12.463 0 0 0 201.15 19.951 Q 198.3 17.101 194.9 16.051 Z M 0 1.001 L 3 1.001 L 3 71.001 L 0 71.001 L 0 1.001 Z" vector-effect="non-scaling-stroke"/></g></svg>